<svg version="1.1" id="Layer_1" xmlns="http://www.w3.org/2000/svg" xmlns:xlink="http://www.w3.org/1999/xlink" x="0px" y="0px" viewBox="0 0 36 36" style="enable-background:new 0 0 36 36;" xml:space="preserve" width="36px" height="36px">
<style type="text/css">
	.icon_blue{fill:#26A4DD;}
</style>
<path class="icon icon_blue" d="M33.3,0H2.7C1.2,0,0,1.2,0,2.7v30.6C0,34.8,1.2,36,2.7,36h30.6c1.5,0,2.7-1.2,2.7-2.7V2.7
	C36,1.2,34.8,0,33.3,0z M11.7,25.2h-1.6L7.2,10.1h2l0.9,5.6l0.2,1l0.3,2.2c0.1,0.4,0.1,0.7,0.1,1c0,0.3,0.1,0.6,0.1,0.8l0.1,0.7
	c0-0.1,0-0.3,0-0.4c0-0.1,0-0.2,0-0.3l0.3-1.7l0.3-2.3c0-0.2,0.1-0.4,0.1-0.6s0.1-0.3,0.1-0.5l1-5.6h1.9L11.7,25.2z M21.6,12.2
	c-0.5-0.3-1-0.4-1.3-0.4c-0.5,0-0.9,0.1-1.2,0.4c-0.3,0.2-0.6,0.6-0.9,1.1c-0.2,0.5-0.4,1.1-0.5,1.9c-0.1,0.8-0.2,1.7-0.2,2.7
	c0,3.7,1,5.6,2.9,5.6c0.3,0,0.7-0.1,1.2-0.3V25c-0.5,0.3-1,0.4-1.6,0.4c-3.1,0-4.6-2.5-4.6-7.5c0-2.7,0.4-4.7,1.1-6
	c0.7-1.3,1.9-2,3.4-2c0.6,0,1.1,0.1,1.7,0.4V12.2z M28.7,25.2h-5.4V10.1h2v13.4h3.3V25.2z"></path>
</svg>